<?xml version="1.0" encoding="UTF-8"?>
<svg xmlns="http://www.w3.org/2000/svg" xmlns:xlink="http://www.w3.org/1999/xlink" width="512" height="512" viewBox="0 0 512 512"><defs><linearGradient id="a" data-name="New Gradient Swatch 1" x1="-38.936" y1="478.936" x2="469.367" y2="-29.367" gradientUnits="userSpaceOnUse"><stop offset="0" stop-color="#003f8a"/><stop offset="0.518" stop-color="#00d7df"/><stop offset="1" stop-color="#006df0"/></linearGradient><linearGradient id="b" x1="121.064" y1="638.936" x2="629.367" y2="130.633" xlink:href="#a"/><linearGradient id="c" x1="-3.058" y1="514.813" x2="505.245" y2="6.51" xlink:href="#a"/></defs><g><path d="M40,368a32,32,0,1,0,32,32A32.036,32.036,0,0,0,40,368Zm0,48a16,16,0,1,1,16-16A16.019,16.019,0,0,1,40,416Z" fill="url(#a)"/><path d="M328,400a32,32,0,1,0,32,32A32.036,32.036,0,0,0,328,400Zm0,48a16,16,0,1,1,16-16A16.019,16.019,0,0,1,328,448Z" fill="url(#b)"/><path d="M431.66,80.94A246.366,246.366,0,0,0,256.92,8h-.9C190.72,8,128.96,33.72,82.03,80.49A251.467,251.467,0,0,0,27.9,160.37,247.427,247.427,0,0,0,8,257.86V328a32.172,32.172,0,0,0,31.41,32,31.537,31.537,0,0,0,22.75-9.17A32.984,32.984,0,0,0,72,327.46V312a16,16,0,0,1,16.31-16c8.65.17,15.69,7.59,15.69,16.55V408a32.172,32.172,0,0,0,31.41,32,31.391,31.391,0,0,0,22.75-9.17A32.984,32.984,0,0,0,168,407.46V387.71a31.982,31.982,0,0,0,32,0V472a32.155,32.155,0,0,0,31.4,31.99c.2.01.39.01.59.01a31.5,31.5,0,0,0,22.17-9.16A33.007,33.007,0,0,0,264,471.46V328a16,16,0,0,1,32,0v32a32.155,32.155,0,0,0,31.4,31.99,31.419,31.419,0,0,0,22.76-9.15A33.007,33.007,0,0,0,360,359.46V280a16,16,0,0,1,32,0V392a32.172,32.172,0,0,0,31.41,32,31.423,31.423,0,0,0,22.75-9.17A32.984,32.984,0,0,0,456,391.46v-59.8a31.462,31.462,0,0,0,38.16-4.83A32.984,32.984,0,0,0,504,303.46V256A246.415,246.415,0,0,0,431.66,80.94ZM160,232a8,8,0,0,0-8,8V407.46a16.868,16.868,0,0,1-5.05,11.95A15.6,15.6,0,0,1,135.7,424,16.079,16.079,0,0,1,120,408V312.55c0-17.62-14.08-32.22-31.38-32.54A31.638,31.638,0,0,0,72,284.28V272a8,8,0,0,0-16,0v55.46a16.868,16.868,0,0,1-5.05,11.95A15.551,15.551,0,0,1,39.7,344,16.079,16.079,0,0,1,24,328V257.86a231.553,231.553,0,0,1,18.62-91.22,235.727,235.727,0,0,1,50.7-74.82c2.2-2.2,4.45-4.33,6.72-6.42l29.56,39.4a7.982,7.982,0,0,0,4.83,3.04l36.43,7.29,29.44,51.51,7.48,52.37-13.6,34L168,278.24V240A8,8,0,0,0,160,232Zm184,48v79.46a16.873,16.873,0,0,1-5.05,11.96A15.655,15.655,0,0,1,327.7,376,16.079,16.079,0,0,1,312,360V328a32,32,0,0,0-64,0V471.46a16.873,16.873,0,0,1-5.05,11.96A15.746,15.746,0,0,1,231.7,488,16.079,16.079,0,0,1,216,472V312a8,8,0,0,0-16,0v48a16,16,0,0,1-32,0V294.56l33.57-6.72a8.009,8.009,0,0,0,5.86-4.87l16-40a7.969,7.969,0,0,0,.49-4.1l-8-56a7.983,7.983,0,0,0-.97-2.84l-32-56a7.984,7.984,0,0,0-5.38-3.87l-37-7.41L112.19,74.92A228.28,228.28,0,0,1,256.02,24h.84a234.189,234.189,0,0,1,36.44,2.98L251.29,57.53A8,8,0,0,0,248,64v64a7.986,7.986,0,0,0,2.02,5.31l64,72a8.007,8.007,0,0,0,9.56,1.85l8.84-4.43,10.35,20.7-13.43,20.13a8,8,0,0,0,3.51,11.79l16.44,7.05A31.8,31.8,0,0,0,344,280Zm144,23.46a16.868,16.868,0,0,1-5.05,11.95A15.559,15.559,0,0,1,471.7,320,16.079,16.079,0,0,1,456,304V240a8,8,0,0,0-16,0V391.46a16.868,16.868,0,0,1-5.05,11.95A15.543,15.543,0,0,1,423.7,408,16.079,16.079,0,0,1,408,392V280a31.979,31.979,0,0,0-45.11-29.18l-14.9-6.38,10.67-16a8.024,8.024,0,0,0,.5-8.02l-16-32a8.017,8.017,0,0,0-10.74-3.58l-10.51,5.26L264,124.96V68.07l50.44-36.68A232.245,232.245,0,0,1,488,256Z" fill="url(#c)"/></g></svg>
